<?xml version="1.0" encoding="UTF-8" standalone="no"?>
<!-- Created with Inkscape (http://www.inkscape.org/) -->

<svg
   width="500"
   height="400"
   viewBox="0 0 132.29166 105.83334"
   version="1.1"
   id="svg1"
   inkscape:version="1.3.2 (091e20e, 2023-11-25, custom)"
   sodipodi:docname="dibujo.svg"
   xmlns:inkscape="http://www.inkscape.org/namespaces/inkscape"
   xmlns:sodipodi="http://sodipodi.sourceforge.net/DTD/sodipodi-0.dtd"
   xmlns="http://www.w3.org/2000/svg"
   xmlns:svg="http://www.w3.org/2000/svg">
  <sodipodi:namedview
     id="namedview1"
     pagecolor="#505050"
     bordercolor="#ffffff"
     borderopacity="1"
     inkscape:showpageshadow="0"
     inkscape:pageopacity="0"
     inkscape:pagecheckerboard="1"
     inkscape:deskcolor="#505050"
     inkscape:document-units="px"
     inkscape:zoom="0.73139029"
     inkscape:cx="451.19549"
     inkscape:cy="238.58671"
     inkscape:window-width="1920"
     inkscape:window-height="1017"
     inkscape:window-x="-8"
     inkscape:window-y="-8"
     inkscape:window-maximized="1"
     inkscape:current-layer="g1" />
  <defs
     id="defs1" />
  <g
     inkscape:label="Capa 1"
     inkscape:groupmode="layer"
     id="layer1">
    <path
       sodipodi:type="star"
       style="fill:#fcbc73;fill-opacity:0.98431373;stroke-width:0.264583;stroke:none"
       id="path1"
       inkscape:flatsided="false"
       sodipodi:sides="3"
       sodipodi:cx="42.867844"
       sodipodi:cy="31.472593"
       sodipodi:r1="51.441616"
       sodipodi:r2="45.268623"
       sodipodi:arg1="0.64068818"
       sodipodi:arg2="1.6878857"
       inkscape:rounded="0.39"
       inkscape:randomized="0"
       d="M 84.107795,62.22168 C 72.766498,77.43236 56.422956,78.647767 37.579472,76.431256 18.735987,74.214745 3.1205663,69.240087 -4.3816218,51.812895 -11.883809,34.385704 -4.7646117,19.624078 6.576685,4.4133977 17.917982,-10.797283 30.033873,-21.833305 48.877358,-19.616795 c 18.843484,2.21651 28.067829,15.7627297 35.570016,33.189921 7.502187,17.427192 11.001717,33.437872 -0.339579,48.648554 z"
       transform="matrix(1.3380815,0,0,1.0889474,10.000649,21.670469)" />
    <g
       id="g1"
       transform="matrix(1.2308402,0,0,1.2308402,-15.269118,-6.5591824)">
      <path
         style="font-weight:900;font-size:14.1111px;font-family:Arial;-inkscape-font-specification:'Arial Heavy';fill:#9d5604;fill-opacity:0.984314;stroke-width:0.264583"
         d="m 30.73028,56.461717 h 8.364685 v 2.156628 h -5.236541 v 1.605413 h 4.857581 v 2.060166 h -4.857581 v 1.991263 h 5.388125 v 2.287542 H 30.73028 Z m 10.039,2.783635 h 2.62516 v 1.198892 q 0.378961,-0.778591 0.778591,-1.067979 0.406521,-0.296278 0.999077,-0.296278 0.620117,0 1.357367,0.385851 l -0.868164,1.998154 q -0.496093,-0.206706 -0.785481,-0.206706 -0.551215,0 -0.854383,0.454752 -0.434081,0.640787 -0.434081,2.397785 v 2.452906 H 40.76928 Z m 6.855734,0 h 2.62516 v 1.198892 q 0.37896,-0.778591 0.778591,-1.067979 0.406521,-0.296278 0.999077,-0.296278 0.620117,0 1.357367,0.385851 l -0.868164,1.998154 q -0.496093,-0.206706 -0.785481,-0.206706 -0.551215,0 -0.854383,0.454752 -0.434082,0.640787 -0.434082,2.397785 v 2.452906 h -2.818085 z m 6.118484,3.679359 q 0,-1.674315 1.129991,-2.756074 1.12999,-1.08865 3.052352,-1.08865 2.197969,0 3.321069,1.274685 0.902615,1.026637 0.902615,2.528698 0,1.688095 -1.1231,2.769854 -1.116211,1.074869 -3.093694,1.074869 -1.763887,0 -2.852537,-0.895724 -1.336696,-1.10932 -1.336696,-2.907658 z m 2.811196,-0.0069 q 0,0.978406 0.392741,1.446939 0.39963,0.468532 0.999077,0.468532 0.606336,0 0.992186,-0.461642 0.392741,-0.461643 0.392741,-1.48139 0,-0.950846 -0.392741,-1.412488 -0.39274,-0.468533 -0.971516,-0.468533 -0.613226,0 -1.012857,0.475423 -0.399631,0.468533 -0.399631,1.433159 z m 6.972869,-3.672469 h 2.625161 v 1.198892 q 0.37896,-0.778591 0.778591,-1.067979 0.406521,-0.296278 0.999077,-0.296278 0.620117,0 1.357366,0.385851 l -0.868163,1.998154 q -0.496093,-0.206706 -0.785481,-0.206706 -0.551215,0 -0.854383,0.454752 -0.434082,0.640787 -0.434082,2.397785 v 2.452906 h -2.818086 z m 15.496029,5.429466 h -5.112517 v -2.308212 l 5.112517,-6.077144 h 2.446016 v 6.208057 h 1.267795 v 2.177299 h -1.267795 v 1.887911 h -2.446016 z m 0,-2.177299 v -3.176375 l -2.700952,3.176375 z m 4.588862,-1.026637 q 0,-2.880098 1.033527,-4.030759 1.040419,-1.150661 3.162596,-1.150661 1.019747,0 1.674315,0.254937 0.654567,0.248047 1.067979,0.654568 0.413411,0.39963 0.647677,0.847492 0.241157,0.440972 0.38585,1.033528 0.282498,1.129991 0.282498,2.356444 0,2.749184 -0.930175,4.023868 -0.930175,1.274685 -3.203936,1.274685 -1.274685,0 -2.060166,-0.406521 -0.785481,-0.406521 -1.288465,-1.192003 -0.365179,-0.558105 -0.571885,-1.522731 -0.199815,-0.971516 -0.199815,-2.142847 z m 2.783635,0.0069 q 0,1.929252 0.337619,2.638941 0.344509,0.702799 0.992186,0.702799 0.427192,0 0.73725,-0.296278 0.316949,-0.303168 0.461643,-0.950846 0.151584,-0.647677 0.151584,-2.018824 0,-2.011934 -0.344509,-2.700953 -0.33762,-0.695909 -1.019748,-0.695909 -0.695909,0 -1.005967,0.70969 -0.310058,0.702798 -0.310058,2.61138 z m 11.45149,3.197046 h -5.112518 v -2.308212 l 5.112518,-6.077144 h 2.446011 v 6.208057 h 1.2678 v 2.177299 h -1.2678 v 1.887911 h -2.446011 z m 0,-2.177299 v -3.176375 l -2.700953,3.176375 z"
         id="text1"
         aria-label="Error 404" />
      <path
         style="font-weight:900;font-size:22.5778px;font-family:Arial;-inkscape-font-specification:'Arial Heavy';fill:#9d5604;fill-opacity:0.984314;stroke-width:0.264583"
         d="m 32.218499,38.275156 q 0,-3.95773 2.204863,-6.162594 2.204863,-2.204863 6.140545,-2.204863 4.0349,0 6.217714,2.171791 2.182815,2.160766 2.182815,6.063374 0,2.833249 -0.959116,4.652261 -0.948091,1.807988 -2.756079,2.822226 -1.796963,1.003212 -4.486897,1.003212 -2.73403,0 -4.530994,-0.870921 -1.785939,-0.870921 -2.899395,-2.756079 -1.113456,-1.885158 -1.113456,-4.718407 z m 4.994015,0.02205 q 0,2.447399 0.903994,3.516757 0.915019,1.069359 2.480472,1.069359 1.60955,0 2.491495,-1.04731 0.881945,-1.04731 0.881945,-3.759292 0,-2.282034 -0.926042,-3.329344 -0.915018,-1.058334 -2.491496,-1.058334 -1.510331,0 -2.425349,1.069359 -0.915019,1.069358 -0.915019,3.538805 z m 13.592982,2.226912 q 0,-2.678909 1.807988,-4.409727 1.807988,-1.741842 4.883772,-1.741842 3.516757,0 5.313721,2.039499 1.444186,1.642623 1.444186,4.045924 0,2.700958 -1.796964,4.431776 -1.785939,1.719793 -4.949918,1.719793 -2.822225,0 -4.564067,-1.433161 -2.138718,-1.774915 -2.138718,-4.652262 z m 4.497921,-0.01102 q 0,1.565453 0.628386,2.315106 0.639411,0.749654 1.598526,0.749654 0.97014,0 1.587502,-0.738629 0.628386,-0.73863 0.628386,-2.370228 0,-1.521356 -0.628386,-2.259985 -0.628386,-0.749654 -1.554429,-0.749654 -0.981164,0 -1.620574,0.760678 -0.639411,0.749654 -0.639411,2.293058 z M 66.437976,50.798779 V 34.637131 h 4.200265 v 1.730818 q 0.870921,-1.091408 1.598526,-1.477259 0.981164,-0.518143 2.17179,-0.518143 2.34818,0 3.627,1.796964 1.289845,1.796964 1.289845,4.4428 0,2.921444 -1.400088,4.464848 -1.400088,1.53238 -3.538805,1.53238 -1.036286,0 -1.896183,-0.352778 -0.848872,-0.352778 -1.521356,-1.04731 v 5.589328 z m 4.497921,-10.274663 q 0,1.389064 0.584289,2.061547 0.584289,0.672484 1.477259,0.672484 0.782726,0 1.311893,-0.639411 0.529168,-0.650434 0.529168,-2.193839 0,-1.422137 -0.551216,-2.083596 -0.551216,-0.672483 -1.344967,-0.672483 -0.859897,0 -1.433161,0.672483 -0.573265,0.672484 -0.573265,2.182815 z m 9.745499,2.57969 4.453824,-0.418924 q 0.275608,0.793751 0.771702,1.135505 0.496094,0.341754 1.322918,0.341754 0.903994,0 1.400088,-0.385851 0.385852,-0.286633 0.385852,-0.716581 0,-0.48507 -0.507119,-0.749653 -0.363803,-0.187414 -1.929255,-0.463022 -2.337156,-0.4079 -3.252174,-0.749653 -0.903994,-0.352778 -1.53238,-1.179602 -0.617362,-0.826824 -0.617362,-1.885158 0,-1.157554 0.672484,-1.995402 0.672483,-0.837848 1.852085,-1.245748 1.179602,-0.418924 3.163979,-0.418924 2.09462,0 3.086808,0.319706 1.003213,0.319705 1.664672,0.992188 0.672484,0.672483 1.113456,1.819012 l -4.255386,0.418924 q -0.165365,-0.56224 -0.551216,-0.826823 -0.529167,-0.352778 -1.278821,-0.352778 -0.760677,0 -1.113456,0.275607 -0.341753,0.264584 -0.341753,0.650435 0,0.429948 0.440972,0.650435 0.440973,0.220486 1.918231,0.396875 2.237937,0.25356 3.329344,0.705557 1.091407,0.451996 1.664672,1.289845 0.584289,0.837848 0.584289,1.84106 0,1.014238 -0.617362,1.973353 -0.606337,0.959116 -1.929255,1.53238 -1.311894,0.56224 -3.582903,0.56224 -3.208077,0 -4.575092,-0.915018 -1.355991,-0.915018 -1.741842,-2.601739 z M 95.277591,30.183307 h 4.795579 v 3.682122 l -0.926044,7.397316 h -2.965541 l -0.903994,-7.397316 z m 0.165365,12.203919 h 4.475873 v 3.957729 h -4.475873 z"
         id="text1-9"
         aria-label="Oops!" />
    </g>
  </g>
</svg>
