<?xml version="1.0" encoding="UTF-8" standalone="no"?>
<!-- Created with Inkscape (http://www.inkscape.org/) -->

<svg
   width="500"
   height="500"
   viewBox="0 0 132.29166 132.29167"
   version="1.1"
   id="svg1"
   xml:space="preserve"
   inkscape:version="1.3.2 (091e20e, 2023-11-25, custom)"
   sodipodi:docname="logo.svg"
   xmlns:inkscape="http://www.inkscape.org/namespaces/inkscape"
   xmlns:sodipodi="http://sodipodi.sourceforge.net/DTD/sodipodi-0.dtd"
   xmlns="http://www.w3.org/2000/svg"
   xmlns:svg="http://www.w3.org/2000/svg"><sodipodi:namedview
     id="namedview1"
     pagecolor="#505050"
     bordercolor="#ffffff"
     borderopacity="1"
     inkscape:showpageshadow="0"
     inkscape:pageopacity="0"
     inkscape:pagecheckerboard="1"
     inkscape:deskcolor="#505050"
     inkscape:document-units="px"
     inkscape:zoom="1.3095539"
     inkscape:cx="285.59344"
     inkscape:cy="286.73887"
     inkscape:window-width="1920"
     inkscape:window-height="991"
     inkscape:window-x="-9"
     inkscape:window-y="-9"
     inkscape:window-maximized="1"
     inkscape:current-layer="layer1" /><defs
     id="defs1" /><g
     inkscape:label="Capa 1"
     inkscape:groupmode="layer"
     id="layer1"><circle
       style="fill:#ffedd8;fill-opacity:1;stroke:none;stroke-width:1.27437;stroke-linecap:round;stroke-linejoin:round"
       id="path7"
       cx="66.145836"
       cy="66.145836"
       r="66.145836" /><circle
       style="fill:#ffd8f0;fill-opacity:0;stroke:none;stroke-width:1.0195;stroke-linecap:round;stroke-linejoin:round"
       id="path7-8"
       cx="66.145836"
       cy="66.145836"
       r="52.916664" /><g
       style="fill:#f47943;fill-opacity:1;stroke:#f47943;stroke-width:1;stroke-linecap:round;stroke-linejoin:round;stroke-opacity:1"
       id="g1"
       transform="matrix(3.9001558,0,0,3.9001558,19.343545,19.344187)"><path
         d="M 14.7,13.5 C 13.6,11.5 13.259,11 12,11 10.741,11 10.264,11.755 9.164,13.747 8.222,15.45 6.318,15.592 5.843,17.038 5.746,17.303 5.698,17.715 5.7,18 c 0,1.176 0.787,2 1.8,2 1.259,0 3,-1 4.5,-1 1.5,0 3.241,1 4.5,1 1.013,0 1.8,-0.823 1.8,-2 0,-0.285 -0.049,-0.697 -0.146,-0.962 C 17.679,15.587 15.642,15.203 14.7,13.5 Z"
         id="path2"
         style="fill:#f47943;fill-opacity:1;stroke:#f47943;stroke-opacity:1" /><path
         d="M 20.188,8.082 A 1.039,1.039 0 0 0 19.782,8 h -0.015 c -0.735,0.012 -1.56,0.75 -1.993,1.866 -0.519,1.335 -0.28,2.7 0.538,3.052 0.129,0.055 0.267,0.082 0.406,0.082 0.739,0 1.575,-0.742 2.011,-1.866 0.516,-1.335 0.273,-2.7 -0.54,-3.052 z"
         id="path3"
         style="fill:#f47943;fill-opacity:1;stroke:#f47943;stroke-opacity:1" /><path
         d="M 9.474,9 C 9.529,9 9.583,9 9.637,8.989 10.581,8.861 11.17,7.643 10.957,6.267 10.754,4.97 9.91,4 9.025,4 8.97,4 8.916,4 8.862,4.011 7.918,4.139 7.329,5.357 7.542,6.733 7.746,8.026 8.59,9 9.475,9 Z"
         id="path4"
         style="fill:#f47943;fill-opacity:1;stroke:#f47943;stroke-opacity:1" /><path
         d="M 16.456,6.733 C 16.67,5.357 16.081,4.139 15.136,4.011 A 1.164,1.164 0 0 0 14.974,4 c -0.885,0 -1.728,0.97 -1.93,2.267 -0.214,1.376 0.375,2.594 1.32,2.722 C 14.418,8.996 14.472,9 14.526,9 c 0.885,0 1.73,-0.974 1.93,-2.267 z"
         id="path5"
         style="fill:#f47943;fill-opacity:1;stroke:#f47943;stroke-opacity:1" /><path
         d="M 5.69,12.918 C 6.506,12.566 6.744,11.199 6.226,9.866 5.79,8.742 4.955,8 4.217,8 4.077,8 3.94,8.027 3.81,8.082 2.994,8.434 2.756,9.801 3.274,11.134 3.71,12.258 4.545,13 5.283,13 5.423,13 5.56,12.973 5.69,12.918 Z"
         id="path6"
         style="fill:#f47943;fill-opacity:1;stroke:#f47943;stroke-opacity:1" /></g><path
       style="font-weight:900;font-size:12.7px;line-height:1.6;font-family:Roboto;-inkscape-font-specification:'Roboto Heavy';letter-spacing:2.64583px;fill:#f47943;stroke:#f47943;stroke-width:0.134673;stroke-linecap:round;stroke-linejoin:round"
       d="m 121.34496,70.522006 6.41017,2.313286 -0.19252,2.423224 -8.75989,-3.744112 0.18859,-2.37377 9.23923,-2.28922 -0.19105,2.404678 z m -1.34662,13.700384 0.93575,-3.292662 -2.06985,-0.588233 -1.10527,3.889159 -1.61054,-0.457703 1.70029,-5.982863 8.68499,2.468207 -1.70368,5.994793 -1.6165,-0.459399 1.10866,-3.901089 -1.83125,-0.520425 -0.93575,3.292662 z m -1.85486,12.620564 1.22938,-2.415005 -6.54869,-3.333673 0.98744,-1.939741 6.5487,3.333673 1.20687,-2.370794 1.49763,0.762384 -3.42369,6.72554 z m -8.98019,6.406616 2.10865,-2.69646 -1.69505,-1.325541 -2.49065,3.184941 -1.31892,-1.0314 3.83148,-4.899537 7.11238,5.561937 -3.83911,4.9093 -1.32381,-1.03522 2.49829,-3.19471 -1.49966,-1.17274 -2.10864,2.69645 z m -6.2956,5.31305 0.89222,-0.76951 -2.08172,-2.41371 1.64828,-1.42156 5.89685,6.83727 -2.69077,2.32067 q -1.21625,1.04896 -2.36761,1.10024 -1.15136,0.0513 -2.00186,-0.93488 -0.61561,-0.71378 -0.72946,-1.43447 -0.11856,-0.71665 0.24551,-1.53835 l -3.804934,-1.5253 -0.06075,-0.0704 1.765669,-1.52281 z m 1.98978,0.50309 -1.04249,0.8991 q -0.4696,0.40501 -0.49379,0.8517 -0.0248,0.45543 0.35586,0.89685 0.3807,0.44142 0.83485,0.48375 0.45819,0.047 0.92309,-0.35392 l 1.0425,-0.89911 z m -12.106888,2.83533 1.85352,-1.12922 4.697564,7.71064 -1.85352,1.12922 z m -10.64077,4.83211 2.013301,-0.79399 5.037874,4.05259 -2.061189,-5.22651 2.024838,-0.79854 3.312463,8.39933 -2.024838,0.79854 -5.032106,-4.05486 2.06119,5.22651 -2.01907,0.79626 z m -8.807685,3.56545 2.945336,-0.47103 0.248,-1.74781 2.296261,-0.36723 -1.844052,9.43855 -2.02071,0.32316 -4.720191,-8.38877 2.308507,-0.36918 z m 2.696357,1.27066 -1.916612,0.30652 1.455901,2.93855 z m -12.632694,0.61182 1.176663,0.0606 0.163922,-3.18319 2.173731,0.11194 -0.46434,9.01696 -3.548569,-0.18274 q -1.603978,-0.0826 -2.471476,-0.84135 -0.867498,-0.75875 -0.800526,-2.05927 0.04848,-0.94134 0.464331,-1.54086 0.409662,-0.59984 1.240713,-0.94203 l -1.695458,-3.73222 0.0048,-0.0929 2.328555,0.11991 z m 1.090237,1.73889 -1.374838,-0.0708 q -0.619297,-0.0319 -0.945529,0.2742 -0.332743,0.31196 -0.362721,0.8941 -0.02998,0.58214 0.26896,0.92663 0.29862,0.35069 0.911724,0.38226 l 1.374838,0.0708 z m -10.70885,-6.32021 2.119505,0.46731 -1.944,8.81714 -2.119506,-0.46731 z m -9.535737,-1.42776 2.763274,1.12303 1.117628,-1.36648 2.15432,0.87554 -6.46719,7.11774 -1.895802,-0.77048 0.308708,-9.62062 2.165809,0.88021 z m 1.647982,2.48376 -1.798139,-0.73078 -0.277122,3.26771 z"
       id="text7"
       transform="rotate(-148.21363,66.437772,67.407479)"
       aria-label="VETERINARIA" /><path
       style="font-weight:900;font-size:12.7px;line-height:1.6;font-family:Roboto;-inkscape-font-specification:'Roboto Heavy';letter-spacing:2.64583px;fill:#f47943;stroke:#f47943;stroke-width:0.134673;stroke-linecap:round;stroke-linejoin:round"
       d="m 120.65786,69.106024 -0.23209,3.781801 -1.67117,-0.102559 0.36541,-5.954325 9.01195,0.553061 -0.13332,2.172524 z m -0.12103,15.320254 q -1.27799,-0.333747 -2.1382,-1.064713 -0.86021,-0.730965 -1.16544,-1.746411 -0.30079,-1.007879 -0.009,-2.12387 0.29144,-1.11599 1.02707,-1.846797 0.74162,-0.72924 1.82253,-0.966101 1.07935,-0.230861 2.3216,0.06792 l 0.492,0.128485 q 1.28399,0.335314 2.13976,1.058713 0.86021,0.730966 1.16544,1.746411 0.30366,1.021446 0.0107,2.143436 -0.28988,1.109991 -1.04507,1.842097 -0.7552,0.732107 -1.85854,0.9567 -1.09891,0.23216 -2.36047,-0.09089 z m 0.92537,-2.046401 q 1.30199,0.340015 2.08837,0.07751 0.79081,-0.254938 1.00234,-1.064931 0.41366,-1.583987 -1.93882,-2.294474 l -0.64043,-0.173657 q -1.28399,-0.335314 -2.08523,-0.08951 -0.80124,0.245804 -1.02061,1.085797 -0.20839,0.797993 0.35679,1.407048 0.56517,0.609055 1.8356,0.947235 z m -6.44415,9.713693 q 0.42713,0.213445 0.81812,0.02755 0.38821,-0.180346 1.02315,-0.812787 0.63493,-0.632441 1.11462,-0.995843 1.55553,-1.18452 2.90348,-0.510919 0.6712,0.335415 0.98749,0.978739 0.31907,0.651643 0.24438,1.508593 -0.0691,0.859722 -0.51543,1.752807 -0.43521,0.870896 -1.08958,1.403504 -0.65714,0.538156 -1.42531,0.632616 -0.76262,0.09723 -1.50039,-0.271447 l 0.97021,-1.941488 q 0.49369,0.24671 0.91796,0.07745 0.4215,-0.163715 0.6793,-0.679596 0.26057,-0.521428 0.18005,-0.942944 -0.0777,-0.413197 -0.43276,-0.590607 -0.31064,-0.155233 -0.73212,0.05008 -0.41594,0.208086 -1.10633,0.90987 -0.68484,0.704557 -1.26436,1.087393 -1.4086,0.932122 -2.73436,0.269609 -1.0595,-0.529457 -1.26496,-1.630391 -0.20547,-1.100934 0.49031,-2.493258 0.49065,-0.981839 1.23929,-1.605985 0.75141,-0.615827 1.56395,-0.715843 0.81532,-0.0917 1.6141,0.307474 l -0.97575,1.952582 q -0.64901,-0.324327 -1.12597,-0.146733 -0.47419,0.185912 -0.85118,0.940319 -0.24117,0.482598 -0.17453,0.862519 0.0694,0.388239 0.44662,0.576737 z m -11.64335,16.02457 q -0.64158,-0.69189 -0.83275,-1.53223 -0.18674,-0.83598 0.12167,-1.71556 0.30405,-0.87515 1.06065,-1.64444 1.24795,-1.26889 2.79218,-1.18527 1.54423,0.0836 3.05187,1.56638 l 0.31833,0.31307 q 0.94614,0.93053 1.33176,1.95342 0.3857,1.03166 0.16159,2.02893 -0.21969,1.00162 -1.01977,1.81512 -1.15229,1.17163 -2.47133,1.27469 -1.31462,0.10741 -2.49348,-0.86065 l 1.52189,-1.54743 q 0.60542,0.56064 1.13579,0.5343 0.53037,-0.0263 1.09129,-0.59668 0.56963,-0.57918 0.40159,-1.275 -0.16804,-0.69582 -1.10555,-1.64396 l -0.45539,-0.44787 q -1.03014,-1.01315 -1.72446,-1.19154 -0.69867,-0.17398 -1.32047,0.45826 -0.52614,0.53496 -0.55242,1.06577 -0.0263,0.53081 0.50456,1.08768 z m -8.397813,4.4228 2.489699,-1.64264 -0.494104,-1.69476 1.941034,-1.28065 2.208294,9.36003 -1.70811,1.12697 -7.757062,-5.69909 1.951386,-1.28747 z m 2.980389,0.0469 -1.620116,1.06892 2.53725,2.07776 z m -16.326977,4.29821 2.019928,-0.77697 5.0035,4.09495 -2.017015,-5.24372 2.031505,-0.78142 3.241471,8.42698 -2.031504,0.78142 -4.997712,-4.09717 2.017015,5.24371 -2.025717,0.7792 z m -6.205549,1.36784 2.128546,-0.42424 1.764807,8.85476 -2.128546,0.42423 z m -11.652865,0.88913 2.163463,-0.0568 3.346161,5.53234 -0.147458,-5.61632 2.175861,-0.0571 0.236976,9.0258 -2.175862,0.0571 -3.339962,-5.5325 0.147459,5.61632 -2.169663,0.057 z m -12.358704,2.45999 q 0.250587,-1.29686 0.924522,-2.20244 0.673936,-0.90558 1.66757,-1.2757 0.986369,-0.3652 2.118839,-0.14638 1.132471,0.21882 1.909223,0.90576 0.775576,0.69302 1.08169,1.7564 0.300027,1.06219 0.08203,2.32114 l -0.09647,0.49926 q -0.251763,1.30295 -0.918434,2.20362 -0.673935,0.90558 -1.667569,1.2757 -0.999723,0.36894 -2.138282,0.14894 -1.126382,-0.21764 -1.905693,-0.92402 -0.779311,-0.70638 -1.074632,-1.79293 -0.302585,-1.08164 -0.06162,-2.36141 z m 2.101848,0.7914 q -0.255292,1.32122 0.05741,2.08902 0.305435,0.77271 1.12739,0.93153 1.607378,0.31059 2.164586,-2.08283 l 0.13197,-0.6503 q 0.251763,-1.30295 -0.04523,-2.08666 -0.296994,-0.78371 -1.149391,-0.94842 -0.809777,-0.15647 -1.381093,0.44683 -0.571317,0.6033 -0.826815,1.8929 z m -10.10927,-5.80392 q -0.18544,0.44001 0.0253,0.81819 0.205021,0.37577 0.877115,0.96857 0.672093,0.5928 1.06569,1.04804 1.282426,1.47586 0.697207,2.86446 -0.291405,0.69145 -0.912979,1.04859 -0.629696,0.36045 -1.48968,0.34122 -0.862392,-0.0135 -1.782414,-0.40126 -0.897163,-0.37811 -1.470886,-0.99674 -0.579437,-0.62105 -0.723268,-1.38152 -0.146239,-0.75476 0.174066,-1.51478 l 2.000046,0.84291 q -0.214339,0.50858 -0.01805,0.92105 0.190571,0.41005 0.722012,0.63402 0.537156,0.22639 0.952598,0.11884 0.407319,-0.10425 0.561451,-0.46997 0.134865,-0.32001 -0.09722,-0.72737 -0.234491,-0.40165 -0.979362,-1.04531 -0.747278,-0.63794 -1.166711,-1.19156 -1.021073,-1.34552 -0.445488,-2.71126 0.459987,-1.09146 1.545369,-1.36753 1.085382,-0.27608 2.519701,0.32841 1.011452,0.42627 1.682605,1.13307 0.66303,0.71011 0.815269,1.51451 0.144116,0.80769 -0.20268,1.63057 l -2.011476,-0.84772 q 0.281772,-0.66859 0.07377,-1.1331 -0.216122,-0.4612 -0.993283,-0.78873 -0.497155,-0.20952 -0.871983,-0.1185 -0.382951,0.0943 -0.546716,0.4829 z"
       id="text7-6"
       transform="rotate(31.546767,71.99006,64.559472)"
       aria-label="LOS CANINOS" /></g></svg>
